<svg xmlns="http://www.w3.org/2000/svg" viewBox="0 0 437.89 109.51"><defs><style>.cls-1{fill:#003bb2;}.cls-2,.cls-3{fill:#fff;}.cls-2{opacity:0;}.cls-4{fill:#bebfbf;}</style></defs><g id="레이어_2" data-name="레이어 2"><g id="레이어_1-2" data-name="레이어 1"><rect class="cls-1" width="109.51" height="109.51"/><rect class="cls-2" x="26.14" y="34.16" width="19.08" height="19.08"/><rect class="cls-2" x="45.22" y="56.27" width="19.08" height="19.08"/><polygon class="cls-3" points="45.22 34.16 26.14 34.16 26.14 53.24 45.22 53.24 38.4 43.7 45.22 34.16"/><polygon class="cls-3" points="64.29 34.16 45.22 34.16 45.22 53.24 64.29 53.24 57.48 43.7 64.29 34.16"/><path class="cls-3" d="M73.83,43.7a9.54,9.54,0,0,0-9.54,9.54H83.37A9.54,9.54,0,0,0,73.83,43.7Z"/><path class="cls-3" d="M73.83,43.7a9.54,9.54,0,0,0,9.54-9.54H64.29A9.54,9.54,0,0,0,73.83,43.7Z"/><polygon class="cls-3" points="26.14 56.27 26.14 65.81 37.59 75.35 45.22 75.35 45.22 56.27 26.14 56.27"/><polygon class="cls-3" points="64.29 56.27 45.22 56.27 52.03 65.81 45.22 75.35 64.29 75.35 57.48 65.81 64.29 56.27"/><polygon class="cls-3" points="64.29 75.35 83.37 75.35 64.29 56.27 64.29 75.35"/><path d="M183.82,55.66H174V34h-2.41v21.2h-9.74V46.76l-4.61,4.7H137.89V8.52H159.3V17.7h-12V42.17h14.56V7.59h9.74V24.25H174V7.43h9.85Z"/><path d="M219.15,34.47h-30V8h28v9H199.67v8.47h19.48Zm13.44,21.19H191.85v-18h10.49v9h30.25ZM231.79,42h-10.5V7.43h10.5V17H237v9.18h-5.24Z"/><path d="M269.42,17.59h-31V10.27H248.7V5.63h10.66v4.64h10.06ZM248.65,37.86a10.86,10.86,0,0,1-4-.71,8.4,8.4,0,0,1-3-2,8.76,8.76,0,0,1-1.9-3,10.5,10.5,0,0,1,0-7.38,8.76,8.76,0,0,1,1.9-3,8.4,8.4,0,0,1,3-2,10.86,10.86,0,0,1,4-.71h10.49a10.58,10.58,0,0,1,4,.71,8.8,8.8,0,0,1,3,2,8.67,8.67,0,0,1,1.92,3,10.5,10.5,0,0,1,0,7.38,8.67,8.67,0,0,1-1.92,3,8.8,8.8,0,0,1-3,2,10.58,10.58,0,0,1-4,.71Zm34.26,17.8H242.17V39.88h10.49V47.8h30.25Zm-26.5-25.18a1.82,1.82,0,0,0,1.42-.55,2.05,2.05,0,0,0,.51-1.47,2.1,2.1,0,0,0-.51-1.48,1.85,1.85,0,0,0-1.42-.54h-5A1.85,1.85,0,0,0,250,27a2.1,2.1,0,0,0-.51,1.48,2.05,2.05,0,0,0,.51,1.47,1.82,1.82,0,0,0,1.42.55ZM282.64,43.1H272.15V7.43h10.49V20.87h5.25V30h-5.25Z"/><path d="M335.37,33.38H324.88V24.64H317a7.53,7.53,0,0,1-2.89,2.07q-5.36,2.29-11,4.37t-11.41,4l-2.67-7.21,4.57-1.61q2.28-.8,4.53-1.66h-7.55V17.81h17.72v-2H291.48V8h27.35v7.49h6.05v-8h10.49Zm0,22.28H324.83v-5.4l-4.93,5.4H295V35h40.41Zm-10.49-8.85V43.92H305.45v2.89Z"/><path d="M386.5,55.66H376v-8.3L371.45,52H340.67V42.83h4V17.37h-3.69V8.25h31.32v9.12h-3.43V42.83H376V34h-5.3V24.25H376V7.43h10.5ZM358.66,42.83V17.37h-3.85V42.83Z"/><path d="M436.82,55.66H426.33V46.81l-4.55,4.65H393.67V8.25h10.49v34h22.17V7.43h10.49Z"/><path class="cls-4" d="M151.67,99a1.83,1.83,0,0,1-.5,1.33,1.74,1.74,0,0,1-1.3.51h-9.11a1.72,1.72,0,0,1-1.3-.51A1.79,1.79,0,0,1,139,99V87a1.8,1.8,0,0,1,.5-1.33,1.76,1.76,0,0,1,1.3-.5h9.11a1.77,1.77,0,0,1,1.3.5,1.84,1.84,0,0,1,.5,1.33v3.69h-2V87.29a.28.28,0,0,0-.31-.32h-8a.28.28,0,0,0-.31.32V98.7a.28.28,0,0,0,.31.32h8c.21,0,.31-.1.31-.32V94.09h-4.44V92.26h6.48Z"/><path class="cls-4" d="M177.63,100.86h-2.12l-3.4-6.59H168v6.59h-2V85.14h9a1.79,1.79,0,0,1,1.3.5,1.84,1.84,0,0,1,.49,1.33v5.47a1.8,1.8,0,0,1-.49,1.32,1.76,1.76,0,0,1-1.3.51h-.77Zm-3.23-8.42a.36.36,0,0,0,.25-.1.34.34,0,0,0,.1-.26V87.33a.34.34,0,0,0-.1-.26.32.32,0,0,0-.25-.1H168v5.47Z"/><path class="cls-4" d="M201,100.86h-8.28a1.76,1.76,0,0,1-1.31-.51A1.82,1.82,0,0,1,191,99V87a1.84,1.84,0,0,1,.49-1.33,1.8,1.8,0,0,1,1.31-.5h8V87H193.3a.28.28,0,0,0-.31.32v4.43h7.27v1.84H193V98.7c0,.22.1.32.31.32H201Z"/><path class="cls-4" d="M228.68,100.86h-2.19L225,96.73h-7l-1.5,4.13h-2.19l5.94-15.72h2.54Zm-4.36-6L221.47,87l-2.85,7.86Z"/><path class="cls-4" d="M246.18,100.86h-2V87h-4.44V85.14h10.91V87h-4.44Z"/><path class="cls-4" d="M276.81,99a1.79,1.79,0,0,1-.5,1.33,1.72,1.72,0,0,1-1.3.51H266.1a1.72,1.72,0,0,1-1.3-.51,1.83,1.83,0,0,1-.5-1.33V87a1.84,1.84,0,0,1,.5-1.33,1.76,1.76,0,0,1,1.3-.5H275a1.76,1.76,0,0,1,1.3.5,1.8,1.8,0,0,1,.5,1.33v4h-2V87.29a.28.28,0,0,0-.31-.32h-7.82a.29.29,0,0,0-.32.32V98.7a.28.28,0,0,0,.32.32h7.82a.28.28,0,0,0,.31-.32V95h2Z"/><path class="cls-4" d="M304.32,99a1.83,1.83,0,0,1-.5,1.33,1.74,1.74,0,0,1-1.3.51h-9.66a1.74,1.74,0,0,1-1.3-.51,1.83,1.83,0,0,1-.5-1.33V87a1.84,1.84,0,0,1,.5-1.33,1.77,1.77,0,0,1,1.3-.5h9.66a1.77,1.77,0,0,1,1.3.5,1.84,1.84,0,0,1,.5,1.33ZM302,99c.21,0,.31-.1.31-.32V87.29A.28.28,0,0,0,302,87h-8.56a.29.29,0,0,0-.32.32V98.7a.28.28,0,0,0,.32.32Z"/><path class="cls-4" d="M334.05,100.86h-2V87.59l-4.34,13.25h-2.55l-4.34-13.25v13.27h-2V85.14H322l4.43,13.64,4.44-13.64h3.21Z"/><path class="cls-4" d="M359.56,93.34a1.82,1.82,0,0,1-.5,1.32,1.74,1.74,0,0,1-1.3.51h-7.12v5.69h-2V85.14h9.15a1.77,1.77,0,0,1,1.3.5,1.84,1.84,0,0,1,.5,1.33Zm-2.39,0a.38.38,0,0,0,.26-.1.4.4,0,0,0,.1-.26V87.33a.38.38,0,0,0-.1-.26.34.34,0,0,0-.26-.1h-6.53v6.37Z"/><path class="cls-4" d="M385.77,100.86h-2.19l-1.5-4.13h-7l-1.51,4.13h-2.19l6-15.72h2.54Zm-4.36-6L378.56,87l-2.86,7.86Z"/><path class="cls-4" d="M411.13,100.86h-2.82l-7.08-13.27v13.27h-2V85.14H402l7.07,13.26V85.14h2Z"/><path class="cls-4" d="M432.24,100.86h-2V94.07l-5.65-8.93h2.23l4.44,6.94,4.44-6.94h2.23l-5.65,8.93Z"/></g></g></svg>