<svg width="110" height="110" viewBox="0 0 110 110" fill="none" xmlns="http://www.w3.org/2000/svg">
<path d="M109.51 0H0V109.51H109.51V0Z" fill="#003BB2"/>
<path d="M45.22 34.1602H26.14V53.2402H45.22L38.4 43.7002L45.22 34.1602Z" fill="white"/>
<path d="M64.29 34.1602H45.22V53.2402H64.29L57.48 43.7002L64.29 34.1602Z" fill="white"/>
<path d="M73.83 43.7002C71.2999 43.7002 68.8733 44.7053 67.0842 46.4944C65.2951 48.2835 64.29 50.71 64.29 53.2402H83.37C83.37 50.71 82.3649 48.2835 80.5758 46.4944C78.7867 44.7053 76.3602 43.7002 73.83 43.7002Z" fill="white"/>
<path d="M73.83 43.7002C76.3602 43.7002 78.7867 42.6951 80.5758 40.906C82.3649 39.1169 83.37 36.6903 83.37 34.1602H64.29C64.29 36.6903 65.2951 39.1169 67.0842 40.906C68.8733 42.6951 71.2999 43.7002 73.83 43.7002Z" fill="white"/>
<path d="M26.14 56.27V65.81L37.59 75.35H45.22V56.27H26.14Z" fill="white"/>
<path d="M64.29 56.27H45.22L52.03 65.81L45.22 75.35H64.29L57.48 65.81L64.29 56.27Z" fill="white"/>
<path d="M64.29 75.35H83.37L64.29 56.27V75.35Z" fill="white"/>
</svg>
